# Blender v2.78 (sub 0) OBJ File: '2.blend'
# www.blender.org
mtllib RAB EL KA3BOURAobj.mtl
o Sphere.001
v -0.217422 0.752379 0.197161
v -0.209327 0.884403 0.189063
v -0.308882 0.752379 0.085716
v -0.296978 0.885533 0.082105
v -0.105981 0.752379 0.288619
v -0.102370 0.885533 0.276715
v -0.110998 0.752379 0.090735
v -0.205597 0.945224 0.185334
v -0.288262 0.983038 0.079461
v -0.280306 1.072025 0.077048
v -0.127725 0.981860 0.214996
v -0.097313 1.072025 0.260043
v -0.201442 1.012980 0.181178
v -0.197820 1.072025 0.177558
v -0.289105 0.752379 -0.115082
v -0.278038 0.885200 -0.110498
v -0.217425 0.752379 -0.202427
v -0.209325 0.884403 -0.194333
v -0.110998 0.752379 -0.096004
v -0.105980 0.752379 -0.293887
v -0.102369 0.885533 -0.281983
v -0.235259 0.981859 -0.112731
v -0.262470 1.072025 -0.104050
v -0.205597 0.945223 -0.190601
v -0.201440 1.012979 -0.186448
v -0.197820 1.072025 -0.182826
v -0.099725 0.983038 -0.273266
v -0.097311 1.072025 -0.265311
v 0.094818 0.752379 0.268843
v 0.090234 0.885200 0.257775
v 0.075741 0.752379 0.090735
v 0.182165 0.752379 0.197159
v 0.174069 0.884403 0.189063
v 0.273624 0.752379 0.085718
v 0.261720 0.885533 0.082107
v 0.092467 0.981859 0.214996
v 0.083786 1.072025 0.242207
v 0.166183 1.012978 0.181180
v 0.162561 1.072025 0.177559
v 0.170336 0.945222 0.185337
v 0.253003 0.983037 0.079463
v 0.245048 1.072025 0.077050
v 0.075741 0.752379 -0.096004
v 0.094820 0.752379 -0.274110
v 0.090236 0.885200 -0.263042
v 0.253848 0.752379 -0.115081
v 0.242780 0.885200 -0.110497
v 0.182163 0.752379 -0.202429
v 0.174068 0.884403 -0.194332
v 0.166182 1.012976 -0.186448
v 0.162566 1.072025 -0.182822
v 0.092467 0.981858 -0.220264
v 0.083788 1.072025 -0.247474
v 0.234659 0.982656 -0.107133
v 0.227212 1.072025 -0.104049
v 0.170337 0.945220 -0.190603
vn -0.7701 0.0860 0.6320
vn -0.6320 0.0860 0.7701
vn 0.0000 -1.0000 -0.0000
vn -0.5646 -0.0987 0.8194
vn -0.6423 0.0861 0.7616
vn -0.7702 0.0860 -0.6320
vn -0.6320 0.0860 -0.7701
vn -0.6320 0.0860 -0.7702
vn -0.8290 -0.0855 -0.5527
vn -0.7616 0.0861 -0.6423
vn 0.7701 0.0860 0.6320
vn 0.6320 0.0860 0.7701
vn 0.5527 -0.0855 0.8290
vn 0.6423 0.0861 0.7616
vn 0.7701 0.0860 -0.6320
vn 0.6320 0.0860 -0.7701
vn 0.5527 -0.0855 -0.8290
vn 0.7702 0.0860 -0.6320
vn 0.6200 0.0858 -0.7799
vn 0.0976 0.0860 0.9915
vn 0.0411 -0.3759 0.9257
vn 0.0000 1.0000 0.0000
vn 0.0977 0.0860 -0.9915
vn 0.1852 -0.0986 -0.9777
vn -0.9915 0.0860 -0.0977
vn 0.9915 0.0860 -0.0976
vn -0.9777 -0.0986 -0.1852
vn -0.5548 0.2537 0.7924
vn -0.8030 0.2423 -0.5446
vn 0.5446 0.2423 0.8030
vn 0.5446 0.2423 -0.8029
vn -0.9521 0.2480 -0.1790
vn 0.0406 0.4795 0.8766
vn 0.1790 0.2480 -0.9521
usemtl None
s off
f 1//1 2//1 4//1 3//1
f 1//2 5//2 6//2 2//2
f 1//3 3//3 7//3 5//3
f 11//4 12//4 14//4 13//4
f 9//1 13//1 14//1 10//1
f 11//5 13//5 9//5 8//5
f 15//6 16//6 18//6 17//6
f 18//7 21//7 20//7 17//7
f 15//3 17//3 20//3 19//3
f 25//8 26//8 28//8 27//8
f 23//9 26//9 25//9 22//9
f 25//10 27//10 24//10 22//10
f 34//11 35//11 33//11 32//11
f 29//12 32//12 33//12 30//12
f 29//3 31//3 34//3 32//3
f 38//13 39//13 37//13 36//13
f 38//11 41//11 42//11 39//11
f 40//14 41//14 38//14 36//14
f 48//15 49//15 47//15 46//15
f 45//16 49//16 48//16 44//16
f 43//3 44//3 48//3 46//3
f 52//17 53//17 51//17 50//17
f 51//18 55//18 54//18 50//18
f 54//19 56//19 52//19 50//19
f 5//20 29//20 30//20 6//20
f 5//3 7//3 31//3 29//3
f 11//21 36//21 37//21 12//21
f 37//22 39//22 14//22 12//22
f 21//23 45//23 44//23 20//23
f 19//3 20//3 44//3 43//3
f 28//24 53//24 52//24 27//24
f 51//22 53//22 28//22 26//22
f 3//25 4//25 16//25 15//25
f 3//3 15//3 19//3 7//3
f 46//26 47//26 35//26 34//26
f 31//3 43//3 46//3 34//3
f 9//27 10//27 23//27 22//27
f 14//22 26//22 23//22 10//22
f 54//26 55//26 42//26 41//26
f 42//22 55//22 51//22 39//22
f 2//1 8//1 9//1 4//1
f 2//28 6//28 11//28 8//28
f 16//29 22//29 24//29 18//29
f 24//7 27//7 21//7 18//7
f 35//11 41//11 40//11 33//11
f 30//30 33//30 40//30 36//30
f 49//15 56//15 54//15 47//15
f 52//31 56//31 49//31 45//31
f 4//32 9//32 22//32 16//32
f 47//26 54//26 41//26 35//26
f 6//33 30//33 36//33 11//33
f 27//34 52//34 45//34 21//34
f 7//3 19//3 43//3 31//3
f 39//22 51//22 26//22 14//22
o Sphere
v -0.587942 -0.555573 0.587933
v -0.653282 -0.382686 0.653280
v -0.735363 0.000001 0.735372
v -0.693555 -0.628193 0.412278
v -0.747781 -0.728248 0.052714
v -0.853557 -0.382683 0.353550
v -0.932928 -0.099454 0.386440
v -0.932935 -0.382676 0.091886
v -1.019689 -0.099459 0.100428
v -0.795667 -0.433467 0.444127
v -0.839617 -0.099456 0.561011
v -0.846654 -0.542529 0.083384
v -0.363313 -0.614528 0.723543
v -0.052717 -0.728247 0.747784
v -0.353551 -0.382680 0.853558
v -0.386439 -0.099462 0.932928
v -0.444128 -0.433464 0.795667
v -0.561016 -0.099452 0.839615
v -0.091887 -0.382686 0.932929
v -0.100427 -0.099453 1.019690
v -0.083387 -0.542528 0.846655
v -0.343356 -0.861707 0.343357
v -0.433564 -0.807858 0.439040
v -0.344413 -0.943170 0.141506
v -0.566666 -0.831474 0.112719
v -0.107003 -0.929224 0.378458
v -0.112716 -0.831470 0.566674
v -0.142699 -1.007311 0.154573
v -0.735364 -0.000006 0.735373
v -0.653283 0.382682 0.653281
v -0.587940 0.555571 0.587934
v -0.906133 0.195083 0.375325
v -0.853544 0.382696 0.353568
v -0.990394 0.195093 0.097547
v -0.932932 0.382682 0.091884
v -0.815492 0.195094 0.544896
v -0.795669 0.433462 0.444126
v -0.846654 0.542528 0.083385
v -0.693555 0.628191 0.412277
v -0.747780 0.728246 0.052715
v -0.375324 0.195097 0.906130
v -0.353557 0.382678 0.853555
v -0.544898 0.195089 0.815492
v -0.444130 0.433463 0.795666
v -0.097546 0.195080 0.990396
v -0.091885 0.382689 0.932927
v -0.083391 0.542527 0.846655
v -0.363314 0.614527 0.723542
v -0.052714 0.728244 0.747784
v -0.433558 0.807857 0.439044
v -0.343355 0.861707 0.343356
v -0.566656 0.831476 0.112724
v -0.344402 0.943172 0.141508
v -0.112718 0.831468 0.566673
v -0.107006 0.929227 0.378444
v -0.142703 1.007309 0.154575
v -0.738546 -0.725818 -0.078375
v -0.693554 -0.628195 -0.412271
v -0.906127 -0.382687 -0.180241
v -0.990393 -0.099454 -0.196998
v -0.853557 -0.382681 -0.353550
v -0.932927 -0.099460 -0.386437
v -0.825447 -0.536582 -0.164191
v -0.795669 -0.433463 -0.444123
v -0.839619 -0.099454 -0.561005
v -0.587934 -0.555572 -0.587938
v -0.653283 -0.382684 -0.653278
v -0.735373 0.000001 -0.735360
v -0.331098 -0.935717 -0.179852
v -0.539460 -0.831467 -0.163639
v -0.343356 -0.861707 -0.343355
v -0.433559 -0.807858 -0.439043
v -0.130974 -1.002192 -0.173228
v -0.107010 -0.929225 -0.378450
v -0.112720 -0.831467 -0.566672
v -0.363315 -0.614530 -0.723537
v -0.052715 -0.728247 -0.747779
v -0.444130 -0.433475 -0.795658
v -0.561032 -0.099450 -0.839602
v -0.353567 -0.382692 -0.853544
v -0.386439 -0.099452 -0.932927
v -0.083383 -0.542527 -0.846653
v -0.091883 -0.382679 -0.932931
v -0.100428 -0.099453 -1.019686
v -0.961940 0.195085 -0.191347
v -0.906127 0.382685 -0.180240
v -0.906130 0.195097 -0.375320
v -0.853555 0.382684 -0.353550
v -0.825448 0.536581 -0.164188
v -0.815489 0.195088 -0.544900
v -0.795671 0.433457 -0.444123
v -0.738547 0.725816 -0.078370
v -0.693555 0.628192 -0.412271
v -0.735375 -0.000010 -0.735360
v -0.653280 0.382675 -0.653285
v -0.587922 0.555569 -0.587950
v -0.539493 0.831451 -0.163620
v -0.331116 0.935707 -0.179858
v -0.433561 0.807855 -0.439042
v -0.343355 0.861706 -0.343354
v -0.130970 1.002189 -0.173233
v -0.112717 0.831466 -0.566674
v -0.107004 0.929233 -0.378427
v -0.544883 0.195097 -0.815496
v -0.444124 0.433453 -0.795672
v -0.375331 0.195090 -0.906125
v -0.353546 0.382677 -0.853558
v -0.083387 0.542525 -0.846652
v -0.097541 0.195090 -0.990391
v -0.091883 0.382681 -0.932929
v -0.363322 0.614520 -0.723540
v -0.052712 0.728250 -0.747775
v 0.078369 -0.725816 0.738549
v 0.412271 -0.628197 0.693555
v 0.180239 -0.382683 0.906129
v 0.196996 -0.099457 0.990396
v 0.164194 -0.536582 0.825448
v 0.353551 -0.382682 0.853556
v 0.386428 -0.099459 0.932932
v 0.444126 -0.433465 0.795668
v 0.561017 -0.099455 0.839612
v 0.179862 -0.935717 0.331096
v 0.163641 -0.831468 0.539457
v 0.212577 -0.980724 0.174422
v 0.343356 -0.861707 0.343357
v 0.439038 -0.807858 0.433564
v 0.378449 -0.929226 0.107003
v 0.566687 -0.831461 0.112718
v 0.587948 -0.555564 0.587931
v 0.653279 -0.382684 0.653283
v 0.735365 0.000001 0.735368
v 0.723540 -0.614528 0.363314
v 0.747782 -0.728247 0.052717
v 0.795665 -0.433464 0.444129
v 0.839611 -0.099455 0.561018
v 0.846654 -0.542526 0.083385
v 0.853556 -0.382681 0.353549
v 0.932925 -0.099459 0.386439
v 0.932932 -0.382674 0.091887
v 1.019687 -0.099453 0.100429
v 0.191341 0.195089 0.961940
v 0.180240 0.382682 0.906128
v 0.164178 0.536580 0.825451
v 0.375335 0.195096 0.906124
v 0.353550 0.382679 0.853557
v 0.544905 0.195077 0.815491
v 0.444126 0.433464 0.795667
v 0.078373 0.725815 0.738549
v 0.412272 0.628192 0.693556
v 0.163643 0.831474 0.539443
v 0.179855 0.935716 0.331095
v 0.212576 0.980721 0.174425
v 0.439043 0.807858 0.433557
v 0.343355 0.861706 0.343355
v 0.566719 0.831442 0.112706
v 0.378447 0.929224 0.107009
v 0.735366 -0.000006 0.735369
v 0.653279 0.382679 0.653285
v 0.587930 0.555569 0.587945
v 0.815496 0.195088 0.544889
v 0.795671 0.433456 0.444125
v 0.846653 0.542525 0.083390
v 0.906124 0.195094 0.375333
v 0.853549 0.382679 0.353565
v 0.990393 0.195083 0.097548
v 0.932927 0.382682 0.091888
v 0.723543 0.614526 0.363311
v 0.747780 0.728246 0.052712
v 0.200808 -0.975602 -0.198899
v 0.143438 -0.927411 -0.358203
v 0.163639 -0.831472 -0.539451
v 0.331098 -0.935716 -0.179857
v 0.539459 -0.831469 -0.163632
v 0.343356 -0.861707 -0.343355
v 0.439043 -0.807856 -0.433560
v 0.078383 -0.725818 -0.738543
v 0.412273 -0.628204 -0.693544
v 0.164204 -0.536581 -0.825444
v 0.180242 -0.382693 -0.906123
v 0.196997 -0.099458 -0.990393
v 0.444131 -0.433468 -0.795661
v 0.561014 -0.099463 -0.839611
v 0.353568 -0.382708 -0.853537
v 0.386419 -0.099457 -0.932934
v 0.738546 -0.725817 -0.078372
v 0.723541 -0.614530 -0.363307
v 0.825446 -0.536580 -0.164196
v 0.795665 -0.433462 -0.444130
v 0.839599 -0.099445 -0.561037
v 0.906125 -0.382684 -0.180245
v 0.990392 -0.099461 -0.197001
v 0.853555 -0.382678 -0.353552
v 0.932928 -0.099456 -0.386433
v 0.587928 -0.555570 -0.587946
v 0.653285 -0.382699 -0.653266
v 0.735368 -0.000002 -0.735361
v 0.200815 0.975599 -0.198896
v 0.163625 0.831460 -0.539473
v 0.143442 0.927408 -0.358205
v 0.539486 0.831451 -0.163632
v 0.331095 0.935716 -0.179852
v 0.439041 0.807856 -0.433556
v 0.343354 0.861706 -0.343354
v 0.164186 0.536578 -0.825448
v 0.191344 0.195094 -0.961937
v 0.180239 0.382683 -0.906126
v 0.544867 0.195107 -0.815505
v 0.444122 0.433463 -0.795665
v 0.375327 0.195079 -0.906130
v 0.353536 0.382669 -0.853564
v 0.078382 0.725816 -0.738546
v 0.412271 0.628194 -0.693553
v 0.825451 0.536579 -0.164174
v 0.815486 0.195080 -0.544908
v 0.795666 0.433452 -0.444133
v 0.961937 0.195095 -0.191345
v 0.906126 0.382682 -0.180239
v 0.906129 0.195085 -0.375327
v 0.853541 0.382697 -0.353564
v 0.738548 0.725813 -0.078375
v 0.723543 0.614524 -0.363310
v 0.735366 0.000010 -0.735362
v 0.653298 0.382679 -0.653265
v 0.587904 0.555590 -0.587952
vn -0.9161 -0.2890 0.2779
vn -0.8566 -0.2768 0.4355
vn -0.8411 -0.4746 0.2593
vn -0.4355 -0.2768 0.8566
vn -0.2779 -0.2890 0.9161
vn -0.2593 -0.4746 0.8411
vn -0.4032 -0.8725 0.2760
vn -0.2576 -0.8858 0.3860
vn -0.3046 -0.8830 0.3572
vn -0.5961 -0.2967 0.7461
vn -0.5563 -0.7779 0.2922
vn -0.3032 -0.7630 0.5708
vn -0.7461 -0.2967 0.5961
vn -0.8347 -0.4841 0.2625
vn -0.2510 -0.4706 0.8459
vn -0.6721 -0.4596 0.5805
vn -0.5548 -0.4902 0.6722
vn -0.5088 -0.6467 0.5682
vn -0.9161 0.2890 0.2779
vn -0.8577 0.2714 0.4367
vn -0.8411 0.4746 0.2593
vn -0.4367 0.2714 0.8577
vn -0.2779 0.2890 0.9161
vn -0.2593 0.4746 0.8411
vn -0.4032 0.8725 0.2760
vn -0.2576 0.8858 0.3860
vn -0.3046 0.8830 0.3572
vn -0.5978 0.2981 0.7442
vn -0.5563 0.7779 0.2922
vn -0.7442 0.2981 0.5978
vn -0.3032 0.7630 0.5708
vn -0.8347 0.4841 0.2625
vn -0.2510 0.4706 0.8459
vn -0.6721 0.4596 0.5805
vn -0.5548 0.4902 0.6722
vn -0.5088 0.6467 0.5682
vn -0.9161 -0.2890 -0.2779
vn -0.8566 -0.2768 -0.4355
vn -0.8409 -0.4743 -0.2607
vn -0.3905 -0.8775 -0.2785
vn -0.2576 -0.8858 -0.3860
vn -0.2951 -0.8843 -0.3619
vn -0.4355 -0.2768 -0.8566
vn -0.2779 -0.2890 -0.9161
vn -0.2593 -0.4746 -0.8411
vn -0.5552 -0.7786 -0.2924
vn -0.5961 -0.2967 -0.7461
vn -0.3032 -0.7630 -0.5708
vn -0.7461 -0.2967 -0.5961
vn -0.8318 -0.4896 -0.2614
vn -0.2510 -0.4706 -0.8459
vn -0.6721 -0.4596 -0.5805
vn -0.5548 -0.4902 -0.6722
vn -0.5088 -0.6467 -0.5682
vn -0.9161 0.2890 -0.2779
vn -0.8577 0.2714 -0.4367
vn -0.8409 0.4743 -0.2607
vn -0.3905 0.8775 -0.2785
vn -0.2576 0.8858 -0.3860
vn -0.2951 0.8843 -0.3619
vn -0.4367 0.2714 -0.8577
vn -0.2779 0.2890 -0.9161
vn -0.2593 0.4746 -0.8411
vn -0.5552 0.7786 -0.2924
vn -0.5978 0.2981 -0.7442
vn -0.7442 0.2981 -0.5978
vn -0.3032 0.7630 -0.5708
vn -0.8318 0.4896 -0.2614
vn -0.2510 0.4706 -0.8459
vn -0.6721 0.4596 -0.5805
vn -0.5548 0.4902 -0.6722
vn -0.5088 0.6467 -0.5682
vn 0.4355 -0.2768 0.8566
vn 0.2779 -0.2890 0.9161
vn 0.2607 -0.4743 0.8409
vn 0.3860 -0.8858 0.2576
vn 0.2785 -0.8775 0.3905
vn 0.3836 -0.8682 0.3148
vn 0.9161 -0.2890 0.2779
vn 0.8566 -0.2768 0.4355
vn 0.8411 -0.4746 0.2593
vn 0.5961 -0.2967 0.7461
vn 0.5708 -0.7630 0.3032
vn 0.2924 -0.7786 0.5552
vn 0.7461 -0.2967 0.5961
vn 0.2614 -0.4896 0.8318
vn 0.8459 -0.4706 0.2510
vn 0.6722 -0.4902 0.5548
vn 0.5805 -0.4596 0.6721
vn 0.5682 -0.6467 0.5088
vn 0.4367 0.2714 0.8577
vn 0.2779 0.2890 0.9161
vn 0.2607 0.4743 0.8409
vn 0.3860 0.8858 0.2576
vn 0.2785 0.8775 0.3905
vn 0.3835 0.8682 0.3148
vn 0.9161 0.2890 0.2779
vn 0.8577 0.2714 0.4367
vn 0.8411 0.4746 0.2593
vn 0.5978 0.2981 0.7442
vn 0.5708 0.7630 0.3032
vn 0.7442 0.2981 0.5978
vn 0.2924 0.7786 0.5552
vn 0.2614 0.4896 0.8318
vn 0.8459 0.4706 0.2510
vn 0.6722 0.4902 0.5548
vn 0.5805 0.4596 0.6721
vn 0.5682 0.6467 0.5088
vn 0.3894 -0.8784 -0.2770
vn 0.2628 -0.8878 -0.3777
vn 0.3171 -0.8715 -0.3742
vn 0.4355 -0.2768 -0.8566
vn 0.2779 -0.2890 -0.9161
vn 0.2607 -0.4743 -0.8409
vn 0.9161 -0.2890 -0.2779
vn 0.8566 -0.2768 -0.4355
vn 0.8409 -0.4743 -0.2607
vn 0.5698 -0.7634 -0.3041
vn 0.5961 -0.2967 -0.7461
vn 0.2924 -0.7786 -0.5552
vn 0.7461 -0.2967 -0.5961
vn 0.2615 -0.4896 -0.8318
vn 0.8451 -0.4741 -0.2470
vn 0.6722 -0.4902 -0.5548
vn 0.5805 -0.4596 -0.6721
vn 0.5682 -0.6467 -0.5088
vn 0.3894 0.8784 -0.2770
vn 0.2628 0.8878 -0.3777
vn 0.3171 0.8715 -0.3742
vn 0.4367 0.2714 -0.8577
vn 0.2779 0.2890 -0.9161
vn 0.2607 0.4743 -0.8409
vn 0.9161 0.2890 -0.2779
vn 0.8577 0.2714 -0.4367
vn 0.8408 0.4743 -0.2607
vn 0.5698 0.7634 -0.3041
vn 0.5978 0.2981 -0.7442
vn 0.7442 0.2981 -0.5978
vn 0.2924 0.7786 -0.5552
vn 0.2614 0.4896 -0.8318
vn 0.8451 0.4741 -0.2470
vn 0.6722 0.4902 -0.5548
vn 0.5805 0.4596 -0.6721
vn 0.5682 0.6467 -0.5088
vn 0.0938 -0.2890 0.9527
vn 0.0865 -0.4696 0.8786
vn 0.0501 -0.8888 0.4555
vn 0.0429 -0.9507 0.3072
vn 0.0814 -0.4521 0.8883
vn 0.0485 -0.8741 0.4834
vn 0.0938 0.2890 0.9527
vn 0.0865 0.4696 0.8786
vn 0.0501 0.8888 0.4555
vn 0.0429 0.9507 0.3072
vn 0.0814 0.4521 0.8883
vn 0.0485 0.8741 0.4834
vn 0.0447 -0.8855 -0.4625
vn 0.0432 -0.9469 -0.3187
vn 0.0938 -0.2890 -0.9527
vn 0.0865 -0.4696 -0.8786
vn 0.0814 -0.4521 -0.8883
vn 0.0485 -0.8741 -0.4834
vn 0.0447 0.8855 -0.4625
vn 0.0432 0.9469 -0.3187
vn 0.0938 0.2890 -0.9527
vn 0.0865 0.4696 -0.8786
vn 0.0814 0.4521 -0.8883
vn 0.0485 0.8741 -0.4834
vn -0.4469 -0.8936 -0.0414
vn -0.3076 -0.9510 -0.0303
vn -0.9527 -0.2890 -0.0938
vn -0.8786 -0.4696 -0.0865
vn -0.8883 -0.4521 -0.0814
vn -0.4834 -0.8741 -0.0485
vn 0.4555 -0.8888 -0.0501
vn 0.2912 -0.9564 -0.0241
vn 0.9527 -0.2890 -0.0938
vn 0.8786 -0.4696 -0.0865
vn 0.8883 -0.4521 -0.0814
vn 0.4834 -0.8741 -0.0485
vn -0.9527 0.2890 -0.0938
vn -0.8786 0.4696 -0.0865
vn -0.4469 0.8936 -0.0414
vn -0.3076 0.9510 -0.0303
vn -0.8883 0.4521 -0.0814
vn -0.4834 0.8741 -0.0485
vn 0.9527 0.2890 -0.0938
vn 0.8786 0.4696 -0.0865
vn 0.4555 0.8888 -0.0501
vn 0.2912 0.9564 -0.0241
vn 0.8883 0.4521 -0.0814
vn 0.4834 0.8741 -0.0485
vn -0.9524 0.0975 0.2889
vn -0.8777 0.0976 0.4692
vn -0.4691 0.0976 0.8777
vn -0.2889 0.0975 0.9524
vn -0.9524 0.0975 -0.2889
vn -0.8777 0.0976 -0.4691
vn -0.4692 0.0976 -0.8777
vn -0.2889 0.0976 -0.9524
vn 0.4691 0.0975 0.8777
vn 0.2889 0.0976 0.9524
vn 0.9524 0.0975 0.2889
vn 0.8777 0.0976 0.4691
vn 0.4692 0.0975 -0.8777
vn 0.2889 0.0976 -0.9524
vn 0.9524 0.0975 -0.2889
vn 0.8777 0.0976 -0.4692
vn 0.8777 0.0976 -0.4691
vn -0.9904 0.0976 -0.0976
vn 0.9904 0.0976 -0.0976
vn 0.0976 0.0976 0.9904
vn 0.0976 0.0976 -0.9904
vn 0.0770 -0.9969 -0.0146
vn 0.0770 0.9969 -0.0146
usemtl None
s off
f 62//35 63//35 65//35 64//35
f 62//36 66//36 67//36 63//36
f 62//37 64//37 68//37 66//37
f 71//38 72//38 74//38 73//38
f 71//39 75//39 76//39 72//39
f 71//40 73//40 77//40 75//40
f 78//41 79//41 81//41 80//41
f 78//42 82//42 83//42 79//42
f 78//43 80//43 84//43 82//43
f 58//44 73//44 74//44 59//44
f 60//45 61//45 81//45 79//45
f 69//46 79//46 83//46 70//46
f 58//47 59//47 67//47 66//47
f 60//48 66//48 68//48 61//48
f 69//49 70//49 77//49 73//49
f 57//50 58//50 66//50 60//50
f 57//51 69//51 73//51 58//51
f 57//52 60//52 79//52 69//52
f 88//53 89//53 91//53 90//53
f 88//54 92//54 93//54 89//54
f 93//55 94//55 91//55 89//55
f 97//56 98//56 100//56 99//56
f 97//57 101//57 102//57 98//57
f 102//58 103//58 100//58 98//58
f 106//59 107//59 109//59 108//59
f 106//60 110//60 111//60 107//60
f 111//61 112//61 109//61 107//61
f 85//62 99//62 100//62 86//62
f 106//63 108//63 96//63 95//63
f 85//64 86//64 93//64 92//64
f 105//65 110//65 106//65 104//65
f 93//66 95//66 96//66 94//66
f 100//67 103//67 105//67 104//67
f 86//68 87//68 95//68 93//68
f 86//69 100//69 104//69 87//69
f 104//70 106//70 95//70 87//70
f 115//71 116//71 118//71 117//71
f 118//72 121//72 120//72 117//72
f 115//73 117//73 120//73 119//73
f 125//74 126//74 128//74 127//74
f 128//75 131//75 130//75 127//75
f 125//76 127//76 130//76 129//76
f 134//77 135//77 137//77 136//77
f 137//78 140//78 139//78 136//78
f 134//79 136//79 139//79 138//79
f 113//80 114//80 128//80 126//80
f 124//81 135//81 134//81 123//81
f 128//82 132//82 133//82 131//82
f 120//83 121//83 124//83 123//83
f 113//84 119//84 120//84 114//84
f 134//85 138//85 133//85 132//85
f 114//86 120//86 123//86 122//86
f 123//87 134//87 132//87 122//87
f 114//88 122//88 132//88 128//88
f 141//89 142//89 144//89 143//89
f 144//90 147//90 146//90 143//90
f 145//91 147//91 144//91 142//91
f 153//92 154//92 156//92 155//92
f 156//93 159//93 158//93 155//93
f 157//94 159//94 156//94 154//94
f 160//95 161//95 163//95 162//95
f 163//96 166//96 165//96 162//96
f 164//97 166//97 163//97 161//97
f 153//98 155//98 149//98 148//98
f 151//99 161//99 160//99 150//99
f 146//100 147//100 151//100 150//100
f 158//101 168//101 167//101 155//101
f 145//102 148//102 149//102 147//102
f 167//103 168//103 164//103 161//103
f 147//104 149//104 152//104 151//104
f 152//105 167//105 161//105 151//105
f 155//106 167//106 152//106 149//106
f 176//107 177//107 175//107 174//107
f 171//108 174//108 175//108 172//108
f 171//109 173//109 176//109 174//109
f 183//110 184//110 182//110 181//110
f 178//111 181//111 182//111 179//111
f 178//112 180//112 183//112 181//112
f 195//113 196//113 194//113 193//113
f 190//114 193//114 194//114 191//114
f 190//115 192//115 195//115 193//115
f 176//116 186//116 187//116 177//116
f 182//117 184//117 189//117 188//117
f 169//118 179//118 182//118 170//118
f 190//119 191//119 187//119 186//119
f 169//120 170//120 176//120 173//120
f 189//121 192//121 190//121 188//121
f 188//122 190//122 186//122 185//122
f 170//123 185//123 186//123 176//123
f 170//124 182//124 188//124 185//124
f 202//125 203//125 201//125 200//125
f 197//126 200//126 201//126 198//126
f 201//127 203//127 199//127 198//127
f 211//128 212//128 210//128 209//128
f 206//129 209//129 210//129 207//129
f 210//130 212//130 208//130 207//130
f 221//131 222//131 220//131 219//131
f 216//132 219//132 220//132 217//132
f 220//133 222//133 218//133 217//133
f 202//134 213//134 214//134 203//134
f 223//135 224//135 211//135 209//135
f 216//136 217//136 214//136 213//136
f 205//137 209//137 206//137 204//137
f 199//138 203//138 205//138 204//138
f 218//139 224//139 223//139 217//139
f 217//140 223//140 215//140 214//140
f 203//141 214//141 215//141 205//141
f 215//142 223//142 209//142 205//142
f 230//143 231//143 229//143 228//143
f 227//144 231//144 230//144 226//144
f 225//145 226//145 230//145 228//145
f 239//146 240//146 238//146 237//146
f 236//147 240//147 239//147 235//147
f 234//148 235//148 239//148 237//148
f 248//149 249//149 247//149 246//149
f 245//150 249//150 248//150 244//150
f 243//151 244//151 248//151 246//151
f 229//152 231//152 242//152 241//152
f 238//153 252//153 251//153 237//153
f 227//154 232//154 233//154 231//154
f 251//155 252//155 245//155 244//155
f 234//156 237//156 233//156 232//156
f 242//157 244//157 243//157 241//157
f 250//158 251//158 244//158 242//158
f 237//159 251//159 250//159 233//159
f 231//160 233//160 250//160 242//160
f 258//161 259//161 257//161 256//161
f 255//162 259//162 258//162 254//162
f 257//163 259//163 255//163 253//163
f 265//164 266//164 264//164 263//164
f 262//165 266//165 265//165 261//165
f 264//166 266//166 262//166 260//166
f 274//167 275//167 273//167 272//167
f 271//168 275//168 274//168 270//168
f 273//169 275//169 271//169 269//169
f 276//170 277//170 258//170 256//170
f 264//171 279//171 278//171 263//171
f 278//172 279//172 271//172 270//172
f 258//173 268//173 267//173 254//173
f 267//174 268//174 264//174 260//174
f 271//175 277//175 276//175 269//175
f 279//176 280//176 277//176 271//176
f 268//177 280//177 279//177 264//177
f 277//178 280//178 268//178 258//178
f 75//179 171//179 172//179 76//179
f 75//180 77//180 173//180 171//180
f 82//181 178//181 179//181 83//181
f 82//182 84//182 180//182 178//182
f 70//183 169//183 173//183 77//183
f 70//184 83//184 179//184 169//184
f 101//185 197//185 198//185 102//185
f 198//186 199//186 103//186 102//186
f 110//187 206//187 207//187 111//187
f 207//188 208//188 112//188 111//188
f 103//189 199//189 204//189 105//189
f 204//190 206//190 110//190 105//190
f 131//191 227//191 226//191 130//191
f 129//192 130//192 226//192 225//192
f 140//193 236//193 235//193 139//193
f 138//194 139//194 235//194 234//194
f 138//195 234//195 232//195 133//195
f 131//196 133//196 232//196 227//196
f 159//197 255//197 254//197 158//197
f 253//198 255//198 159//198 157//198
f 166//199 262//199 261//199 165//199
f 260//200 262//200 166//200 164//200
f 168//201 267//201 260//201 164//201
f 254//202 267//202 168//202 158//202
f 80//203 81//203 126//203 125//203
f 80//204 125//204 129//204 84//204
f 64//205 65//205 116//205 115//205
f 64//206 115//206 119//206 68//206
f 61//207 68//207 119//207 113//207
f 61//208 113//208 126//208 81//208
f 228//209 229//209 184//209 183//209
f 180//210 225//210 228//210 183//210
f 246//211 247//211 196//211 195//211
f 192//212 243//212 246//212 195//212
f 241//213 243//213 192//213 189//213
f 184//214 229//214 241//214 189//214
f 90//215 91//215 142//215 141//215
f 94//216 145//216 142//216 91//216
f 108//217 109//217 154//217 153//217
f 112//218 157//218 154//218 109//218
f 94//219 96//219 148//219 145//219
f 108//220 153//220 148//220 96//220
f 272//221 273//221 222//221 221//221
f 222//222 273//222 269//222 218//222
f 256//223 257//223 212//223 211//223
f 212//224 257//224 253//224 208//224
f 269//225 276//225 224//225 218//225
f 224//226 276//226 256//226 211//226
f 63//227 88//227 90//227 65//227
f 63//228 67//228 92//228 88//228
f 72//229 97//229 99//229 74//229
f 72//230 76//230 101//230 97//230
f 59//228 85//228 92//228 67//228
f 59//229 74//229 99//229 85//229
f 116//231 141//231 143//231 118//231
f 143//232 146//232 121//232 118//232
f 135//233 160//233 162//233 137//233
f 162//234 165//234 140//234 137//234
f 121//232 146//232 150//232 124//232
f 150//233 160//233 135//233 124//233
f 177//235 202//235 200//235 175//235
f 172//236 175//236 200//236 197//236
f 196//237 221//237 219//237 194//237
f 191//238 194//238 219//238 216//238
f 191//238 216//238 213//238 187//238
f 177//235 187//235 213//235 202//235
f 240//239 265//239 263//239 238//239
f 261//240 265//240 240//240 236//240
f 249//241 274//241 272//241 247//241
f 270//242 274//242 249//242 245//242
f 252//243 278//243 270//243 245//243
f 263//239 278//239 252//239 238//239
f 65//244 90//244 141//244 116//244
f 247//245 272//245 221//245 196//245
f 76//246 172//246 197//246 101//246
f 165//247 261//247 236//247 140//247
f 84//248 129//248 225//248 180//248
f 208//249 253//249 157//249 112//249
